<?xml version="1.0"?>
<svg version="1.1" xmlns="http://www.w3.org/2000/svg" width="280" height="91" style=""><path fill="#" d="M16.57861328125,36.00244140625q0-1.8115234375,0.62109375-2.4326171875t1.73388671875-0.62109375q0.310546875,0,0.659912109375,0.0517578125t0.659912109375,0.1552734375q1.73388671875-0.33642578125,3.28662109375-0.33642578125q2.51025390625,0,4.5546875,0.8798828125q3.28662109375,1.3974609375,5.4345703125,4.140625t3.1572265625,6.44384765625t1.00927734375,7.58251953125q0,2.173828125-0.297607421875,4.52880859375t-1.151611328125,4.37353515625q-0.75048828125,1.8115234375-2.0703125,3.791259765625t-2.989013671875,3.75244140625t-3.59716796875,3.10546875t-3.894775390625,1.798583984375l0,0.20703125q0,0.517578125-0.271728515625,0.841064453125t-0.659912109375,0.49169921875t-0.892822265625,0.219970703125t-0.944580078125,0.0517578125q-0.2587890625,0-0.737548828125-0.0517578125t-0.931640625-0.194091796875t-0.763427734375-0.375244140625t-0.310546875-0.64697265625q0-4.7099609375-0.245849609375-9.432861328125t-0.556396484375-9.44580078125t-0.556396484375-9.432861328125t-0.245849609375-9.44580078125z M21.4697265625,34.6826171875q0.2587890625,2.484375,0.33642578125,4.955810546875t0.23291015625,4.955810546875q0.4140625,6.41796875,0.95751953125,12.771240234375t0.64697265625,12.771240234375q2.484375-1.63037109375,4.257080078125-3.7265625t2.911376953125-4.5546875t1.669189453125-5.162841796875t0.530517578125-5.576904296875q0-2.0703125-0.3623046875-4.5546875t-1.2421875-4.78759765625t-2.367919921875-4.16650390625t-3.713623046875-2.66552734375q-0.4658203125-0.1552734375-1.125732421875-0.2587890625t-2.109130859375-0.103515625q-0.1552734375,0-0.310546875,0.0517578125t-0.310546875,0.0517578125z M42.966557617188,55.10107421875q0-1.06103515625,0.375244140625-1.78564453125t1.591552734375-0.724609375q0.4658203125,0,1.16455078125,0.142333984375t0.80224609375,0.711669921875q0.2587890625,1.52685546875,0.28466796875,3.3125t0.18115234375,3.3642578125q0.59521484375-1.16455078125,1.52685546875-2.51025390625t2.1220703125-2.484375t2.587890625-1.88916015625t2.8466796875-0.75048828125q0.103515625,0,0.38818359375,0.07763671875t0.530517578125,0.219970703125t0.297607421875,0.323486328125t-0.28466796875,0.33642578125q-0.103515625,0.310546875-0.43994140625,0.375244140625t-0.59521484375,0.064697265625q-0.1552734375,0-0.49169921875-0.12939453125q-1.9150390625,1.00927734375-3.2607421875,2.7431640625t-2.19970703125,3.843017578125t-1.2421875,4.451171875t-0.38818359375,4.567626953125q0,1.11279296875-0.504638671875,1.345703125t-1.617431640625,0.23291015625q-0.59521484375,0-1.255126953125-0.12939453125t-0.918701171875-0.828125q-0.4658203125-1.47509765625-0.763427734375-3.39013671875t-0.452880859375-3.946533203125t-0.219970703125-3.998291015625t-0.064697265625-3.54541015625z M61.357919921875,63.408203125q0-1.8115234375,0.401123046875-4.27001953125t1.358642578125-4.658203125t2.523193359375-3.739501953125t3.946533203125-1.539794921875q2.2255859375,0,3.33837890625,1.281005859375t1.11279296875,3.454833984375q0,1.42333984375-0.530517578125,3.118408203125t-1.513916015625,3.208984375t-2.3291015625,2.523193359375t-3.001953125,1.00927734375l-0.6728515625-0.0517578125q0,0.69873046875,0.20703125,1.876220703125t0.608154296875,2.342041015625t1.03515625,2.04443359375t1.539794921875,0.8798828125q1.31982421875,0,2.5361328125-1.06103515625t2.30322265625-2.35498046875t2.0185546875-2.35498046875t1.7080078125-1.06103515625q0.4140625,0,0.85400390625,0.12939453125t0.49169921875,0.724609375q0,0.3623046875-0.194091796875,0.59521484375t-0.349365234375,0.517578125q-0.80224609375,1.37158203125-1.746826171875,2.61376953125t-2.135009765625,2.25146484375t-2.600830078125,1.591552734375t-3.118408203125,0.582275390625q-2.2255859375,0-3.70068359375-0.789306640625t-2.380859375-2.1220703125t-1.306884765625-3.07958984375t-0.401123046875-3.661865234375z M65.990244140625,61.44140625l0.724609375,0.64697265625q0.517578125,0.4658203125,1.03515625,0.20703125t0.931640625-0.944580078125t0.763427734375-1.695068359375t0.62109375-2.0703125t0.401123046875-2.0703125t0.12939453125-1.68212890625l0-0.8798828125t-0.07763671875-0.931640625t-0.271728515625-0.737548828125t-0.608154296875-0.375244140625q-0.12939453125-0.02587890625-0.23291015625-0.02587890625q-0.8798828125,0-1.5009765625,1.11279296875q-0.6728515625,1.2421875-1.0869140625,3.014892578125t-0.59521484375,3.635986328125t-0.23291015625,2.794921875z M82.984145507812,62.34716796875q0-1.759765625,0.478759765625-3.39013671875t1.436279296875-2.911376953125t2.393798828125-2.04443359375t3.325439453125-0.763427734375q1.16455078125,0,2.574951171875,0.349365234375t2.652587890625,1.03515625t2.0703125,1.746826171875t0.828125,2.4326171875q0,0.64697265625-0.219970703125,0.9833984375t-0.892822265625,0.33642578125l-0.28466796875-0.0517578125q0.75048828125,2.0185546875,1.2939453125,4.140625t1.06103515625,4.244140625q0.20703125,0.4140625,0.310546875,0.737548828125t0.103515625,0.634033203125q0,0.4140625-0.23291015625,0.685791015625t-0.608154296875,0.401123046875t-0.7763671875,0.18115234375t-0.711669921875,0.0517578125q-1.11279296875,0-1.669189453125-0.38818359375t-0.80224609375-1.06103515625t-0.297607421875-1.513916015625t-0.20703125-1.695068359375q-0.310546875,1.00927734375-0.815185546875,1.966796875t-1.1904296875,1.720947265625t-1.617431640625,1.21630859375t-2.09619140625,0.452880859375q-1.7080078125,0-2.87255859375-0.9833984375t-1.876220703125-2.419677734375t-1.03515625-3.066650390625t-0.323486328125-3.02783203125z M86.658950195312,61.98486328125q0,0.95751953125,0.12939453125,2.0185546875t0.427001953125,2.09619140625t0.763427734375,1.953857421875t1.16455078125,1.617431640625q1.26806640625-1.37158203125,1.876220703125-3.33837890625t1.0869140625-3.791259765625t1.0869140625-3.13134765625t1.876220703125-1.306884765625q0.80224609375,0,1.345703125,0.28466796875q-0.2587890625-0.64697265625-0.85400390625-1.255126953125t-1.332763671875-1.11279296875t-1.52685546875-0.828125t-1.488037109375-0.323486328125q-0.20703125,0-0.478759765625,0.064697265625t-0.427001953125,0.012939453125q-1.06103515625,0.310546875-1.746826171875,1.073974609375t-1.11279296875,1.798583984375t-0.608154296875,2.1220703125t-0.18115234375,2.04443359375z M105.47731445313,55.864501953125q-0.064697265625-0.866943359375,0.103515625-1.591552734375t0.6728515625-1.177490234375t1.617431640625-0.452880859375q0.2587890625,0,0.634033203125,0.064697265625t0.737548828125,0.168212890625t0.608154296875,0.310546875t0.245849609375,0.5693359375l0,2.92431640625q1.00927734375-1.16455078125,2.19970703125-1.669189453125t2.71728515625-0.504638671875q1.16455078125,0,2.30322265625,0.530517578125t2.14794921875,1.410400390625t1.746826171875,1.94091796875t1.073974609375,2.1220703125q0.20703125-0.95751953125,0.4658203125-2.342041015625t0.763427734375-2.652587890625t1.332763671875-2.173828125t2.19970703125-0.90576171875q1.47509765625,0,2.484375,1.06103515625t1.643310546875,2.756103515625t0.95751953125,3.791259765625t0.478759765625,4.140625t0.1552734375,3.817138671875l0,2.781982421875q0,0.310546875-0.23291015625,0.504638671875t-0.582275390625,0.297607421875t-0.724609375,0.12939453125t-0.582275390625,0.02587890625q-0.80224609375,0-1.462158203125-0.245849609375t-0.659912109375-1.255126953125l0-2.3291015625t-0.0517578125-3.014892578125t-0.18115234375-3.23486328125t-0.33642578125-2.937255859375t-0.530517578125-2.1220703125t-0.789306640625-0.828125q-0.64697265625,0-0.931640625,0.724609375t-0.478759765625,1.83740234375t-0.297607421875,2.35498046875t-0.28466796875,2.35498046875t-0.582275390625,1.824462890625t-1.099853515625,0.711669921875q-0.75048828125,0-1.31982421875-0.711669921875t-1.125732421875-1.772705078125t-1.11279296875-2.27734375t-1.229248046875-2.27734375q-0.6728515625-1.0869140625-1.44921875-1.759765625q-0.69873046875-0.64697265625-1.57861328125-0.62109375l-0.12939453125,0q-1.16455078125,0.0517578125-1.824462890625,0.841064453125t-1.00927734375,1.927978515625t-0.427001953125,2.445556640625t-0.07763671875,2.290283203125q0,0.931640625,0.1552734375,2.173828125q0.103515625,0.828125,0.103515625,1.57861328125q0,0.38818359375-0.02587890625,0.75048828125q-0.07763671875,1.0869140625-0.582275390625,1.824462890625t-1.876220703125,0.737548828125q-0.517578125,0-1.2939453125-0.103515625t-1.03515625-0.69873046875q-0.59521484375-1.06103515625-0.90576171875-2.678466796875t-0.4658203125-3.33837890625t-0.18115234375-3.416015625t-0.02587890625-2.911376953125q0-0.85400390625-0.064697265625-1.720947265625z M138.11501464844,56.576171875q0-0.75048828125,0.427001953125-0.9833984375t1.073974609375-0.23291015625q1.06103515625,0,1.617431640625,0.401123046875t0.556396484375,1.410400390625q0,1.21630859375,0.18115234375,3.040771484375t0.530517578125,3.54541015625t0.828125,2.963134765625t0.996337890625,1.2421875q0.95751953125,0,1.695068359375-1.47509765625t1.2939453125-3.623046875t0.95751953125-4.619384765625t0.556396484375-4.412353515625q0.103515625-1.06103515625,0.504638671875-1.539794921875t1.462158203125-0.478759765625q1.21630859375,0,1.772705078125,1.00927734375t0.711669921875,2.484375q0.12939453125,1.26806640625,0.12939453125,2.6396484375l0,0.43994140625l0,1.03515625q0,0.9833984375,0.02587890625,1.759765625l0.75048828125,15.86376953125l0.103515625,2.6396484375q0.0517578125,0.3623046875,0.07763671875,0.685791015625t0.02587890625,0.685791015625q0,1.47509765625-0.634033203125,1.902099609375t-2.057373046875,0.427001953125q-0.310546875,0-0.789306640625-0.0517578125t-0.931640625-0.20703125t-0.7763671875-0.427001953125t-0.323486328125-0.685791015625l0.103515625-0.2587890625q0.12939453125-1.552734375,0.12939453125-3.2607421875l0-0.54345703125q-0.02587890625-2.0185546875-0.12939453125-4.0888671875t-0.23291015625-4.140625t-0.12939453125-3.9853515625q-0.3623046875,0.80224609375-0.841064453125,1.65625t-1.11279296875,1.539794921875t-1.436279296875,1.138671875t-1.8115234375,0.452880859375q-1.47509765625,0-2.4326171875-0.7763671875t-1.488037109375-2.0185546875t-0.763427734375-2.781982421875t-0.310546875-3.07958984375t-0.103515625-2.937255859375t-0.20703125-2.35498046875z"/><path fill="#92945a" d="M174.77371582031,36.00244140625q0-1.8115234375,0.62109375-2.4326171875t1.73388671875-0.62109375q0.310546875,0,0.659912109375,0.0517578125t0.659912109375,0.1552734375q1.73388671875-0.33642578125,3.28662109375-0.33642578125q2.51025390625,0,4.5546875,0.8798828125q3.28662109375,1.3974609375,5.4345703125,4.140625t3.1572265625,6.44384765625t1.00927734375,7.58251953125q0,2.173828125-0.297607421875,4.52880859375t-1.151611328125,4.37353515625q-0.75048828125,1.8115234375-2.0703125,3.791259765625t-2.989013671875,3.75244140625t-3.59716796875,3.10546875t-3.894775390625,1.798583984375l0,0.20703125q0,0.517578125-0.271728515625,0.841064453125t-0.659912109375,0.49169921875t-0.892822265625,0.219970703125t-0.944580078125,0.0517578125q-0.2587890625,0-0.737548828125-0.0517578125t-0.931640625-0.194091796875t-0.763427734375-0.375244140625t-0.310546875-0.64697265625q0-4.7099609375-0.245849609375-9.432861328125t-0.556396484375-9.44580078125t-0.556396484375-9.432861328125t-0.245849609375-9.44580078125z M179.66482910156,34.6826171875q0.2587890625,2.484375,0.33642578125,4.955810546875t0.23291015625,4.955810546875q0.4140625,6.41796875,0.95751953125,12.771240234375t0.64697265625,12.771240234375q2.484375-1.63037109375,4.257080078125-3.7265625t2.911376953125-4.5546875t1.669189453125-5.162841796875t0.530517578125-5.576904296875q0-2.0703125-0.3623046875-4.5546875t-1.2421875-4.78759765625t-2.367919921875-4.16650390625t-3.713623046875-2.66552734375q-0.4658203125-0.1552734375-1.125732421875-0.2587890625t-2.109130859375-0.103515625q-0.1552734375,0-0.310546875,0.0517578125t-0.310546875,0.0517578125z M201.16166015625,63.408203125q0-1.8115234375,0.401123046875-4.27001953125t1.358642578125-4.658203125t2.523193359375-3.739501953125t3.946533203125-1.539794921875q2.2255859375,0,3.33837890625,1.281005859375t1.11279296875,3.454833984375q0,1.42333984375-0.530517578125,3.118408203125t-1.513916015625,3.208984375t-2.3291015625,2.523193359375t-3.001953125,1.00927734375l-0.6728515625-0.0517578125q0,0.69873046875,0.20703125,1.876220703125t0.608154296875,2.342041015625t1.03515625,2.04443359375t1.539794921875,0.8798828125q1.31982421875,0,2.5361328125-1.06103515625t2.30322265625-2.35498046875t2.0185546875-2.35498046875t1.7080078125-1.06103515625q0.4140625,0,0.85400390625,0.12939453125t0.49169921875,0.724609375q0,0.3623046875-0.194091796875,0.59521484375t-0.349365234375,0.517578125q-0.80224609375,1.37158203125-1.746826171875,2.61376953125t-2.135009765625,2.25146484375t-2.600830078125,1.591552734375t-3.118408203125,0.582275390625q-2.2255859375,0-3.70068359375-0.789306640625t-2.380859375-2.1220703125t-1.306884765625-3.07958984375t-0.401123046875-3.661865234375z M205.793984375,61.44140625l0.724609375,0.64697265625q0.517578125,0.4658203125,1.03515625,0.20703125t0.931640625-0.944580078125t0.763427734375-1.695068359375t0.62109375-2.0703125t0.401123046875-2.0703125t0.12939453125-1.68212890625l0-0.8798828125t-0.07763671875-0.931640625t-0.271728515625-0.737548828125t-0.608154296875-0.375244140625q-0.12939453125-0.02587890625-0.23291015625-0.02587890625q-0.8798828125,0-1.5009765625,1.11279296875q-0.6728515625,1.2421875-1.0869140625,3.014892578125t-0.59521484375,3.635986328125t-0.23291015625,2.794921875z M222.78788574219,61.82958984375q0-1.86328125,0.478759765625-3.739501953125t1.488037109375-3.3642578125t2.574951171875-2.419677734375t3.687744140625-0.931640625q0.90576171875,0,1.99267578125,0.219970703125t2.005615234375,0.69873046875t1.552734375,1.2421875t0.634033203125,1.876220703125q0,0.69873046875-0.3623046875,0.931640625t-0.95751953125,0.23291015625l-0.18115234375-0.2587890625t-0.504638671875-0.659912109375t-0.685791015625-0.85400390625t-0.69873046875-0.763427734375q-1.06103515625-1.06103515625-1.99267578125-1.138671875l-0.20703125,0q-0.7763671875,0-1.44921875,0.4658203125q-0.75048828125,0.5693359375-1.332763671875,1.6044921875t-0.970458984375,2.19970703125t-0.608154296875,2.35498046875t-0.219970703125,1.966796875q0,1.06103515625,0.245849609375,2.419677734375t0.828125,2.574951171875t1.47509765625,2.04443359375t2.290283203125,0.828125q1.26806640625,0,2.30322265625-0.62109375t1.979736328125-1.384521484375t1.850341796875-1.37158203125t1.86328125-0.608154296875q0.4140625,0,0.841064453125,0.103515625t0.427001953125,0.54345703125l0,0.1552734375q-0.4658203125,1.21630859375-1.57861328125,2.14794921875t-2.497314453125,1.617431640625t-2.87255859375,1.022216796875t-2.652587890625,0.33642578125q-2.173828125,0-3.817138671875-0.711669921875t-2.730224609375-1.953857421875t-1.643310546875-2.989013671875t-0.556396484375-3.817138671875z M244.85405273437,62.8388671875q0-1.47509765625,0.375244140625-3.040771484375t1.1904296875-2.82080078125t2.057373046875-2.04443359375t3.001953125-0.789306640625q1.31982421875,0,2.781982421875,0.452880859375t2.678466796875,1.2939453125t1.979736328125,2.057373046875t0.763427734375,2.71728515625q0,1.8115234375-0.659912109375,3.44189453125t-1.850341796875,2.911376953125t-2.781982421875,2.0185546875t-3.454833984375,0.737548828125q-1.52685546875,0-2.66552734375-0.556396484375t-1.902099609375-1.488037109375t-1.138671875-2.19970703125t-0.375244140625-2.69140625z M248.65825195312,62.787109375q0,0.4658203125,0.142333984375,1.37158203125t0.427001953125,1.772705078125t0.737548828125,1.5009765625t1.099853515625,0.582275390625q1.37158203125-0.1552734375,2.264404296875-0.892822265625t1.44921875-1.798583984375t0.7763671875-2.30322265625t0.219970703125-2.35498046875q0-1.42333984375-0.556396484375-2.380859375t-1.824462890625-1.552734375q0,0.0517578125,0.0517578125,0.0517578125t0.0517578125-0.0517578125l-0.64697265625-0.1552734375q-0.2587890625-0.103515625-0.634033203125-0.23291015625t-0.737548828125-0.5693359375q-1.00927734375,0.3623046875-1.565673828125,0.931640625t-0.841064453125,1.384521484375t-0.349365234375,1.953857421875t-0.064697265625,2.7431640625z M264.46172363281,55.10107421875q0-1.06103515625,0.375244140625-1.78564453125t1.591552734375-0.724609375q0.4658203125,0,1.16455078125,0.142333984375t0.80224609375,0.711669921875q0.2587890625,1.52685546875,0.28466796875,3.3125t0.18115234375,3.3642578125q0.59521484375-1.16455078125,1.52685546875-2.51025390625t2.1220703125-2.484375t2.587890625-1.88916015625t2.8466796875-0.75048828125q0.103515625,0,0.38818359375,0.07763671875t0.530517578125,0.219970703125t0.297607421875,0.323486328125t-0.28466796875,0.33642578125q-0.103515625,0.310546875-0.43994140625,0.375244140625t-0.59521484375,0.064697265625q-0.1552734375,0-0.49169921875-0.12939453125q-1.9150390625,1.00927734375-3.2607421875,2.7431640625t-2.19970703125,3.843017578125t-1.2421875,4.451171875t-0.38818359375,4.567626953125q0,1.11279296875-0.504638671875,1.345703125t-1.617431640625,0.23291015625q-0.59521484375,0-1.255126953125-0.12939453125t-0.918701171875-0.828125q-0.4658203125-1.47509765625-0.763427734375-3.39013671875t-0.452880859375-3.946533203125t-0.219970703125-3.998291015625t-0.064697265625-3.54541015625z"/></svg>
